<svg xmlns="http://www.w3.org/2000/svg" xmlns:xlink="http://www.w3.org/1999/xlink" width="130" height="50" viewBox="0 0 130.15 19.56"><defs><style>.cls-1{fill:url(#linear-gradient);}</style><linearGradient id="linear-gradient" x1="8.73" y1="-10.83" x2="114.02" y2="30.78" gradientUnits="userSpaceOnUse"><stop offset="0" stop-color="#025056"/><stop offset="0.24" stop-color="#037372"/><stop offset="0.39" stop-color="#04847f"/><stop offset="0.45" stop-color="#149187"/><stop offset="0.59" stop-color="#35ab98"/><stop offset="0.71" stop-color="#4abaa2"/><stop offset="0.78" stop-color="#51c0a6"/><stop offset="1" stop-color="#65c5b6"/></linearGradient></defs><title>Asset 2</title><g id="Layer_2" data-name="Layer 2"><g id="Layer_1-2" data-name="Layer 1"><path class="cls-1" d="M4.85,7.15v8c0,1.27.67,1.8,1.9,1.8a4.19,4.19,0,0,0,1.18-.17l.19,2.28a6.18,6.18,0,0,1-2.26.38c-2.71,0-4.06-1.56-4.06-4.22V7.15H0V4.8H1.9l.55-3.38,2.4-.24V4.8H8.23V7.15Z"/><path class="cls-1" d="M10.63,19.25V4.9l2.45-.14.26,2.71h.07a4.54,4.54,0,0,1,4.15-2.88,5.27,5.27,0,0,1,1.51.19l-.19,3.1a5.11,5.11,0,0,0-1.51-.24c-2.09,0-3.7,1.63-3.7,4.34v7.27Z"/><path class="cls-1" d="M29,17.71l-.07,0a5.08,5.08,0,0,1-4.08,1.8c-2.69,0-4.46-1.49-4.46-4.7,0-2.71,1.82-4.46,5.18-4.46a10,10,0,0,1,3,.46V9.7c0-1.8-.86-2.52-3-2.52a9.21,9.21,0,0,0-4,.82l-.26-2.52a11.85,11.85,0,0,1,4.82-.94c4,0,5.5,1.73,5.5,5.62v9.1H29.26Zm-.43-4.82a6.42,6.42,0,0,0-2.45-.41c-2,0-2.86.79-2.86,2.26,0,1.68,1,2.28,2.42,2.28s2.88-1,2.88-2Z"/><path class="cls-1" d="M43.54,19.25V9.91c0-1.82-1-2.59-2.76-2.59A3.65,3.65,0,0,0,37.9,8.64V19.25h-3V4.87L37,4.7l.48,1.39a6,6,0,0,1,4.1-1.56c3,0,5,1.85,5,5.35v9.36Z"/><path class="cls-1" d="M53.79,19.54a8.75,8.75,0,0,1-4.49-1.08l.36-2.59A8.09,8.09,0,0,0,53.79,17c1.75,0,2.5-.79,2.5-1.85,0-2.74-7-1.32-7-6.31,0-2.52,1.75-4.27,5.28-4.27a10,10,0,0,1,4,.82l-.26,2.54a10.54,10.54,0,0,0-3.79-.74c-1.44,0-2.3.58-2.3,1.54,0,2.54,6.94,1.13,6.94,6.14C59.11,17.67,57.53,19.54,53.79,19.54Z"/><path class="cls-1" d="M77.83,19.25V9.86a2.26,2.26,0,0,0-2.54-2.52A2.22,2.22,0,0,0,72.84,9.7v9.55h-3V9.7a2.16,2.16,0,0,0-2.45-2.38,3.11,3.11,0,0,0-2.57,1.32V19.25h-3V4.87l2.18-.14.53,1.44a5.24,5.24,0,0,1,3.72-1.61A4,4,0,0,1,72,6.62a4.58,4.58,0,0,1,4.08-2.06c2.81,0,4.78,1.73,4.78,5.26v9.43Z"/><path class="cls-1" d="M83.4,11.76c0-4.58,2-7.2,6.19-7.2,3.55,0,5.83,2.09,5.83,6.7a14.62,14.62,0,0,1-.07,1.46H86.57c.14,3,1.42,4.08,4.18,4.08A9.55,9.55,0,0,0,94.63,16L95,18.53a10.55,10.55,0,0,1-4.61,1C85.51,19.51,83.4,16.95,83.4,11.76Zm9.22-1.1c0-2.54-1.2-3.5-3-3.5-2.09,0-3,1.06-3.12,3.5Z"/><path class="cls-1" d="M107.35,19.25,107,17.88l-.07,0a4.89,4.89,0,0,1-4,1.68c-3.79,0-5.54-2.4-5.54-7.56,0-4.8,1.78-7.44,5.52-7.44A5.35,5.35,0,0,1,106.68,6l0,0,0-1.92V.46l3-.17v19Zm-.67-10.58a3.41,3.41,0,0,0-2.9-1.32c-2.38,0-3.24,1.25-3.24,4.75,0,3.67.77,4.9,3.22,4.9a3.17,3.17,0,0,0,2.93-1.44Z"/><path class="cls-1" d="M115.32,2.88c-1.22,0-1.82-.36-1.82-1.42S114.1,0,115.32,0s1.82.53,1.82,1.46S116.57,2.88,115.32,2.88Zm-1.56,16.37V4.9l3.1-.17V19.25Z"/><path class="cls-1" d="M129.84,7.92a7.05,7.05,0,0,0-2.67-.55c-2.9,0-3.91,1.3-3.91,4.63,0,3.53,1.37,4.87,3.84,4.87a6,6,0,0,0,2.83-.67l.22,2.45a6.93,6.93,0,0,1-3.7.91c-4.18,0-6.36-2.4-6.36-7.56,0-4.82,1.94-7.42,6.43-7.42a9.79,9.79,0,0,1,3.5.65Z"/></g></g></svg>